<?xml version="1.0" encoding="UTF-8" standalone="no"?>
<!-- Created with Inkscape (http://www.inkscape.org/) -->

<svg
   xmlns:dc="http://purl.org/dc/elements/1.1/"
   xmlns:cc="http://creativecommons.org/ns#"
   xmlns:rdf="http://www.w3.org/1999/02/22-rdf-syntax-ns#"
   xmlns:svg="http://www.w3.org/2000/svg"
   xmlns="http://www.w3.org/2000/svg"
   xmlns:sodipodi="http://sodipodi.sourceforge.net/DTD/sodipodi-0.dtd"
   xmlns:inkscape="http://www.inkscape.org/namespaces/inkscape"
   width="744.09448819"
   height="1052.3622047"
   id="svg7608"
   version="1.1"
   inkscape:version="0.48.4 r9939"
   sodipodi:docname="New document 15">
  <defs
     id="defs7610" />
  <sodipodi:namedview
     id="base"
     pagecolor="#ffffff"
     bordercolor="#666666"
     borderopacity="1.0"
     inkscape:pageopacity="0.0"
     inkscape:pageshadow="2"
     inkscape:zoom="0.98994949"
     inkscape:cx="220.36929"
     inkscape:cy="479.40801"
     inkscape:document-units="px"
     inkscape:current-layer="layer1"
     showgrid="false"
     inkscape:window-width="1325"
     inkscape:window-height="744"
     inkscape:window-x="41"
     inkscape:window-y="24"
     inkscape:window-maximized="1" />
  <metadata
     id="metadata7613">
    <rdf:RDF>
      <cc:Work
         rdf:about="">
        <dc:format>image/svg+xml</dc:format>
        <dc:type
           rdf:resource="http://purl.org/dc/dcmitype/StillImage" />
        <dc:title></dc:title>
      </cc:Work>
    </rdf:RDF>
  </metadata>
  <g
     inkscape:label="Layer 1"
     inkscape:groupmode="layer"
     id="layer1">
    <path
       inkscape:connector-curvature="0"
       d="m 375,542.36218 c -5.5225,0 -10,-4.4775 -10,-10 0,-5.5225 4.4775,-10 10,-10 5.5225,0 10,4.4775 10,10 0,5.5225 -4.4775,10 -10,10 m 0,-22.5 c -6.90375,0 -12.5,5.59625 -12.5,12.5 0,6.90375 5.59625,12.5 12.5,12.5 6.90375,0 12.5,-5.59625 12.5,-12.5 0,-6.90375 -5.59625,-12.5 -12.5,-12.5 m 0,6.25 c -3.4525,0 -6.25,2.7975 -6.25,6.25 0,3.4525 2.7975,6.25 6.25,6.25 3.4525,0 6.25,-2.7975 6.25,-6.25 0,-3.4525 -2.7975,-6.25 -6.25,-6.25"
       style="fill:#5677fc;fill-opacity:1;fill-rule:nonzero;stroke:none"
       id="path1280" />
    <path
       inkscape:connector-curvature="0"
       d="m 374.57143,515.21933 c -5.5225,0 -10,-4.4775 -10,-10 0,-5.5225 4.4775,-10 10,-10 5.5225,0 10,4.4775 10,10 0,5.5225 -4.4775,10 -10,10 m 0,-22.5 c -6.90375,0 -12.5,5.59625 -12.5,12.5 0,6.90375 5.59625,12.5 12.5,12.5 6.90375,0 12.5,-5.59625 12.5,-12.5 0,-6.90375 -5.59625,-12.5 -12.5,-12.5"
       style="fill:#000000;fill-opacity:1;fill-rule:nonzero;stroke:none;opacity:0.54"
       id="path1360" />
  </g>
</svg>
